<svg id="visual" viewBox="0 0 900 600" width="900" height="600" xmlns="http://www.w3.org/2000/svg" xmlns:xlink="http://www.w3.org/1999/xlink" version="1.1"><rect x="0" y="0" width="900" height="600" fill="#002233"></rect><path d="M0 439L21.5 431C43 423 86 407 128.8 411.3C171.7 415.7 214.3 440.3 257.2 459.7C300 479 343 493 385.8 488.8C428.7 484.7 471.3 462.3 514.2 445.3C557 428.3 600 416.7 642.8 420.2C685.7 423.7 728.3 442.3 771.2 439C814 435.7 857 410.3 878.5 397.7L900 385L900 601L878.5 601C857 601 814 601 771.2 601C728.3 601 685.7 601 642.8 601C600 601 557 601 514.2 601C471.3 601 428.7 601 385.8 601C343 601 300 601 257.2 601C214.3 601 171.7 601 128.8 601C86 601 43 601 21.5 601L0 601Z" fill="#0066FF" stroke-linecap="round" stroke-linejoin="miter"></path></svg>